<?xml version="1.0" encoding="UTF-8"?>
<svg width="264px" height="50px" viewBox="0 0 264 50" version="1.1" xmlns="http://www.w3.org/2000/svg" xmlns:xlink="http://www.w3.org/1999/xlink">
    <title>Artboard Copy 2</title>
    <g id="Page-1" stroke="none" stroke-width="1" fill="none" fill-rule="evenodd">
        <g id="Dark-BG" transform="translate(-61.000000, -71.000000)">
            <g id="Group" transform="translate(61.000000, 20.000000)">
                <path d="M63.132,86.962 C67.5226667,86.962 70.8773333,86.074 73.196,84.298 C75.5146667,82.522 76.674,80.0553333 76.674,76.898 C76.674,74.086 75.8353333,71.8536667 74.158,70.201 C72.4806667,68.5483333 69.9646667,67.3026667 66.61,66.464 L66.61,66.464 L61.504,65.206 C59.7773333,64.8113333 58.544,64.2193333 57.804,63.43 C57.064,62.6406667 56.694,61.6786667 56.694,60.544 C56.694,59.0146667 57.3476667,57.8306667 58.655,56.992 C59.9623333,56.1533333 61.726,55.734 63.946,55.734 C66.166,55.734 68.09,56.0793333 69.718,56.77 C71.346,57.4606667 72.604,58.102 73.492,58.694 C74.0346667,58.4473333 74.4663333,58.0773333 74.787,57.584 C75.1076667,57.0906667 75.268,56.5233333 75.268,55.882 C75.268,54.55 74.2073333,53.3783333 72.086,52.367 C69.9646667,51.3556667 67.1773333,50.85 63.724,50.85 C61.5533333,50.85 59.6663333,51.109 58.063,51.627 C56.4596667,52.145 55.1153333,52.848 54.03,53.736 C52.9446667,54.624 52.143,55.66 51.625,56.844 C51.107,58.028 50.848,59.2613333 50.848,60.544 C50.848,62.912 51.5386667,64.8483333 52.92,66.353 C54.3013333,67.8576667 56.4966667,69.0046667 59.506,69.794 L59.506,69.794 L65.648,71.422 C69.052,72.2606667 70.754,74.086 70.754,76.898 C70.754,80.3513333 68.1886667,82.078 63.058,82.078 C60.7886667,82.078 58.766,81.6956667 56.99,80.931 C55.214,80.1663333 53.66,79.2906667 52.328,78.304 C51.6866667,78.6986667 51.2056667,79.1673333 50.885,79.71 C50.5643333,80.2526667 50.404,80.82 50.404,81.412 C50.404,82.1026667 50.7123333,82.781 51.329,83.447 C51.9456667,84.113 52.809,84.705 53.919,85.223 C55.029,85.741 56.3733333,86.1603333 57.952,86.481 C59.5306667,86.8016667 61.2573333,86.962 63.132,86.962 Z M111.049846,86.962 C113.861846,86.962 116.266846,86.666 118.264846,86.074 C120.262846,85.482 121.829179,84.8653333 122.963846,84.224 C123.999846,83.632 124.653513,83.0276667 124.924846,82.411 C125.196179,81.7943333 125.331846,80.968 125.331846,79.932 L125.331846,79.932 L125.331846,54.18 C125.331846,52.3546667 124.271179,51.442 122.149846,51.442 C121.607179,51.442 121.076846,51.5036667 120.558846,51.627 C120.040846,51.7503333 119.658513,51.8613333 119.411846,51.96 L119.411846,51.96 L119.411846,80.154 C118.622513,80.598 117.537179,81.0296667 116.155846,81.449 C114.774513,81.8683333 113.097179,82.078 111.123846,82.078 C108.163846,82.078 105.845179,81.3996667 104.167846,80.043 C102.490513,78.6863333 101.651846,76.4046667 101.651846,73.198 L101.651846,73.198 L101.651846,54.18 C101.651846,52.3546667 100.615846,51.442 98.5438462,51.442 C97.9518462,51.442 97.3968462,51.5036667 96.8788462,51.627 C96.3608462,51.7503333 95.9785128,51.8613333 95.7318462,51.96 L95.7318462,51.96 L95.7318462,73.494 C95.7318462,78.1313333 97.0515128,81.5353333 99.6908462,83.706 C102.330179,85.8766667 106.116513,86.962 111.049846,86.962 Z M149.717692,86.37 C150.309692,86.37 150.852359,86.3083333 151.345692,86.185 C151.839026,86.0616667 152.209026,85.9506667 152.455692,85.852 L152.455692,85.852 L152.455692,58.176 C153.590359,57.5346667 155.021026,56.9796667 156.747692,56.511 C158.474359,56.0423333 160.472359,55.808 162.741692,55.808 C163.531026,55.808 164.320359,55.8573333 165.109692,55.956 C165.899026,56.0546667 166.540359,56.1533333 167.033692,56.252 C167.280359,55.956 167.477692,55.5983333 167.625692,55.179 C167.773692,54.7596667 167.847692,54.3033333 167.847692,53.81 C167.847692,51.8366667 165.874359,50.85 161.927692,50.85 C159.165026,50.85 156.686026,51.1583333 154.490692,51.775 C152.295359,52.3916667 150.556359,53.1193333 149.273692,53.958 C148.287026,54.5993333 147.584026,55.253 147.164692,55.919 C146.745359,56.585 146.535692,57.4853333 146.535692,58.62 L146.535692,58.62 L146.535692,83.706 C146.535692,85.482 147.596359,86.37 149.717692,86.37 Z M196.673538,100.948 C198.942872,100.948 201.064205,100.701333 203.037538,100.208 C205.010872,99.7146667 206.725205,98.9376667 208.180538,97.877 C209.635872,96.8163333 210.770538,95.435 211.584538,93.733 C212.398538,92.031 212.805538,89.9466667 212.805538,87.48 L212.805538,87.48 L212.805538,57.732 C212.805538,56.844 212.571205,56.0916667 212.102538,55.475 C211.633872,54.8583333 211.029538,54.3033333 210.289538,53.81 C209.006872,52.9713333 207.415872,52.2683333 205.516538,51.701 C203.617205,51.1336667 201.532872,50.85 199.263538,50.85 C196.747538,50.85 194.453538,51.2076667 192.381538,51.923 C190.309538,52.6383333 188.521205,53.7113333 187.016538,55.142 C185.511872,56.5726667 184.340205,58.3486667 183.501538,60.47 C182.662872,62.5913333 182.243538,65.058 182.243538,67.87 C182.243538,70.978 182.675205,73.6173333 183.538538,75.788 C184.401872,77.9586667 185.561205,79.7223333 187.016538,81.079 C188.471872,82.4356667 190.161538,83.4223333 192.085538,84.039 C194.009538,84.6556667 196.056872,84.964 198.227538,84.964 C200.250205,84.964 201.989205,84.7173333 203.444538,84.224 C204.899872,83.7306667 206.046872,83.1386667 206.885538,82.448 L206.885538,82.448 L206.885538,87.11 C206.885538,90.218 206.009872,92.475 204.258538,93.881 C202.507205,95.287 199.978872,95.99 196.673538,95.99 C194.453538,95.99 192.406205,95.657 190.531538,94.991 C188.656872,94.325 187.201538,93.5973333 186.165538,92.808 C185.672205,93.0546667 185.265205,93.4123333 184.944538,93.881 C184.623872,94.3496667 184.463538,94.9293333 184.463538,95.62 C184.463538,96.9026667 185.203538,97.9633333 186.683538,98.802 C187.324872,99.1966667 188.521205,99.653 190.272538,100.171 C192.023872,100.689 194.157538,100.948 196.673538,100.948 Z M198.893538,80.08 C197.413538,80.08 196.019872,79.858 194.712538,79.414 C193.405205,78.97 192.270538,78.2546667 191.308538,77.268 C190.346538,76.2813333 189.594205,75.011 189.051538,73.457 C188.508872,71.903 188.237538,70.016 188.237538,67.796 C188.237538,63.8 189.236538,60.7906667 191.234538,58.768 C193.232538,56.7453333 195.908872,55.734 199.263538,55.734 C200.990205,55.734 202.482538,55.9436667 203.740538,56.363 C204.998538,56.7823333 206.046872,57.2633333 206.885538,57.806 L206.885538,57.806 L206.885538,77.046 C206.046872,77.8353333 204.998538,78.5383333 203.740538,79.155 C202.482538,79.7716667 200.866872,80.08 198.893538,80.08 Z M250.511385,86.962 C252.139385,86.962 253.656385,86.814 255.062385,86.518 C256.468385,86.222 257.701718,85.8273333 258.762385,85.334 C259.823051,84.8406667 260.661718,84.2733333 261.278385,83.632 C261.895051,82.9906667 262.203385,82.3246667 262.203385,81.634 C262.203385,80.45 261.611385,79.5126667 260.427385,78.822 C259.440718,79.6113333 258.108718,80.3513333 256.431385,81.042 C254.754051,81.7326667 252.879385,82.078 250.807385,82.078 C243.654051,82.078 239.411385,78.8466667 238.079385,72.384 L238.079385,72.384 L260.871385,69.202 C261.759385,69.1033333 262.450051,68.8196667 262.943385,68.351 C263.436718,67.8823333 263.683385,67.1053333 263.683385,66.02 C263.683385,63.8 263.301051,61.765 262.536385,59.915 C261.771718,58.065 260.711051,56.4616667 259.354385,55.105 C257.997718,53.7483333 256.382051,52.7 254.507385,51.96 C252.632718,51.22 250.585385,50.85 248.365385,50.85 C245.997385,50.85 243.802051,51.257 241.779385,52.071 C239.756718,52.885 238.017718,54.0566667 236.562385,55.586 C235.107051,57.1153333 233.972385,58.9776667 233.158385,61.173 C232.344385,63.3683333 231.937385,65.872 231.937385,68.684 C231.937385,74.6533333 233.602385,79.192 236.932385,82.3 C240.262385,85.408 244.788718,86.962 250.511385,86.962 Z M237.709385,67.796 C237.808051,63.8986667 238.844051,60.9016667 240.817385,58.805 C242.790718,56.7083333 245.282051,55.66 248.291385,55.66 C251.251385,55.66 253.557718,56.5356667 255.210385,58.287 C256.863051,60.0383333 257.812718,62.2706667 258.059385,64.984 L258.059385,64.984 L237.709385,67.796 Z" id="surge" fill="#FEFEFF" fill-rule="nonzero"></path>
                <path d="M5,58 L35,58 L35,58 L35,59 C35,61.7614237 32.7614237,64 30,64 L0,64 L0,64 L0,63 C5.50001544e-16,60.2385763 2.23857625,58 5,58 Z" id="Rectangle" fill="#8CA7F6"></path>
                <path d="M18,74 L35,74 L35,74 L35,75 C35,77.7614237 32.7614237,80 30,80 L13,80 L13,80 L13,79 C13,76.2385763 15.2385763,74 18,74 Z" id="Rectangle-Copy" fill="#8CA7F6"></path>
            </g>
        </g>
    </g>
</svg>